<?xml version="1.0" standalone="no"?>
<!DOCTYPE svg PUBLIC "-//W3C//DTD SVG 20010904//EN"
 "http://www.w3.org/TR/2001/REC-SVG-20010904/DTD/svg10.dtd">
<svg version="1.0" xmlns="http://www.w3.org/2000/svg"
 width="1248.000000pt" height="1248.000000pt" viewBox="0 0 1248.000000 1248.000000"
 preserveAspectRatio="xMidYMid meet">
<metadata>
Created by potrace 1.14, written by Peter Selinger 2001-2017
</metadata>
<g transform="translate(0.000000,1248.000000) scale(0.100000,-0.100000)"
fill="#000000" stroke="none">
<path d="M6088 12475 c-2 -1 -27 -6 -57 -9 -64 -8 -68 -8 -186 -37 -49 -12
-95 -25 -101 -30 -6 -5 -14 -6 -17 -2 -4 3 -13 1 -20 -5 -8 -7 -17 -9 -20 -5
-4 3 -7 2 -7 -3 0 -5 -9 -10 -21 -11 -11 -1 -50 -16 -86 -32 -36 -17 -69 -28
-74 -25 -5 3 -9 1 -9 -4 0 -5 -37 -28 -82 -51 -96 -48 -145 -77 -163 -94 -7
-7 -25 -21 -41 -32 -146 -103 -317 -281 -418 -433 -110 -166 -259 -487 -272
-587 -1 -11 -3 -20 -4 -20 -3 0 -16 -58 -24 -110 -15 -97 -18 -137 -19 -240 0
-130 5 -191 29 -305 3 -14 7 -38 10 -53 2 -16 6 -33 10 -38 3 -5 7 -20 10 -34
12 -65 100 -307 135 -368 21 -38 39 -75 39 -82 0 -7 3 -15 8 -17 4 -1 29 -37
56 -78 27 -41 53 -76 58 -78 4 -2 8 -8 8 -13 0 -5 13 -23 30 -40 16 -18 28
-35 25 -39 -2 -4 -46 -31 -97 -61 -115 -66 -291 -189 -364 -254 -6 -5 -33 -29
-60 -51 -27 -23 -66 -58 -87 -78 -21 -20 -43 -36 -49 -36 -6 0 -9 -2 -6 -5 3
-3 -29 -40 -71 -83 -42 -42 -101 -106 -131 -142 -30 -36 -58 -67 -61 -70 -3
-3 -38 -48 -78 -100 -39 -52 -76 -101 -81 -107 -25 -30 -169 -273 -163 -273 5
0 4 -4 -2 -8 -15 -10 -35 -49 -35 -67 0 -8 -4 -15 -8 -15 -5 0 -19 -26 -31
-57 -13 -32 -30 -73 -38 -91 -8 -18 -16 -41 -18 -52 -2 -10 -8 -27 -13 -37 -6
-10 -11 -22 -12 -28 -3 -13 -10 -34 -21 -65 -14 -42 -76 -302 -85 -355 -4 -27
-9 -57 -10 -65 -8 -39 -16 -111 -19 -165 -2 -33 -5 -60 -6 -60 -3 0 -8 -121
-9 -230 -1 -99 5 -192 16 -249 2 -11 6 -37 9 -58 3 -21 22 -96 41 -166 20 -70
37 -131 38 -137 1 -5 5 -16 9 -22 5 -7 10 -21 12 -30 9 -37 48 -140 74 -198
15 -33 41 -89 57 -125 15 -36 32 -66 36 -68 4 -2 8 -8 8 -14 0 -29 153 -262
225 -342 6 -6 22 -26 38 -44 15 -19 27 -30 27 -25 0 4 9 -5 20 -22 11 -16 20
-26 20 -21 0 5 8 0 18 -12 22 -26 134 -101 190 -127 49 -23 52 -31 15 -33 -16
0 -39 -3 -53 -5 -14 -3 -42 -8 -64 -12 -21 -4 -48 -9 -60 -12 -11 -2 -32 -7
-46 -10 -13 -4 -67 -22 -120 -40 -52 -19 -101 -35 -107 -35 -7 -1 -13 -5 -13
-10 0 -4 -6 -8 -14 -8 -25 0 -239 -114 -336 -180 -218 -146 -442 -352 -620
-570 -25 -30 -47 -57 -50 -60 -3 -3 -21 -27 -39 -55 -19 -27 -38 -52 -41 -55
-14 -12 -80 -111 -80 -120 0 -6 -4 -10 -10 -10 -5 0 -10 -7 -10 -15 0 -8 -3
-15 -7 -15 -5 0 -21 -23 -38 -51 -16 -28 -40 -68 -53 -88 -12 -20 -25 -43 -29
-51 -4 -8 -26 -48 -50 -88 -23 -39 -40 -72 -37 -72 3 0 -3 -12 -14 -27 -26
-39 -212 -421 -218 -449 -1 -5 -13 -35 -26 -65 -14 -30 -37 -88 -52 -129 -15
-41 -32 -84 -37 -95 -9 -19 -78 -219 -84 -240 -1 -5 -5 -17 -8 -25 -9 -24 -47
-145 -52 -166 -3 -10 -11 -41 -19 -69 -46 -159 -105 -399 -100 -406 3 -5 1 -9
-4 -9 -5 0 -9 -6 -9 -12 0 -7 -6 -33 -12 -58 -6 -25 -14 -58 -16 -75 -2 -16
-9 -50 -15 -75 -5 -25 -12 -56 -14 -70 -3 -14 -10 -50 -16 -80 -6 -30 -13 -71
-16 -90 -2 -19 -9 -60 -16 -90 -6 -30 -12 -71 -14 -90 -1 -19 -3 -35 -4 -35
-2 0 -10 -47 -15 -85 -2 -19 -4 -35 -5 -35 -1 0 -3 -13 -4 -30 -2 -16 -6 -53
-10 -80 -10 -70 -14 -100 -21 -175 -3 -36 -8 -76 -10 -90 -2 -14 -7 -59 -10
-100 -3 -41 -8 -91 -10 -110 -2 -19 -7 -80 -10 -135 -4 -55 -8 -127 -10 -161
-2 -34 -7 -145 -10 -248 l-6 -186 4801 0 4800 0 -5 173 c-7 202 -12 313 -20
417 -3 41 -8 107 -10 145 -2 39 -6 86 -9 105 -7 49 -18 158 -21 201 -1 19 -4
40 -7 45 -3 5 -5 28 -4 52 1 23 -1 42 -4 42 -4 0 -6 10 -7 23 0 21 -8 81 -18
137 -2 14 -7 45 -10 70 -4 25 -9 59 -12 75 -3 17 -6 37 -7 45 -2 16 -15 95
-20 120 -2 8 -6 33 -10 55 -4 22 -14 72 -22 110 -7 39 -16 81 -18 95 -3 14 -8
36 -11 50 -3 14 -8 32 -10 40 -2 8 -4 15 -5 15 -1 0 -3 14 -4 30 -1 17 -5 37
-8 45 -3 8 -22 83 -43 165 -20 83 -38 157 -40 165 -5 19 -30 105 -43 147 -6
17 -8 34 -4 37 3 3 0 6 -6 6 -7 0 -12 8 -12 18 0 20 -75 254 -108 337 -11 28
-21 55 -22 60 -1 6 -8 25 -16 44 -8 18 -14 37 -14 42 0 5 -4 17 -9 27 -5 9
-13 28 -19 42 -13 33 -41 97 -90 210 -8 19 -37 81 -63 137 -27 57 -49 106 -48
109 0 4 -3 10 -8 13 -7 5 -41 68 -125 231 -13 25 -26 47 -29 50 -3 3 -16 25
-30 50 -13 25 -27 47 -31 48 -5 2 -8 8 -8 13 0 5 -27 50 -60 99 -33 49 -60 94
-60 100 0 6 -4 8 -10 5 -5 -3 -10 -1 -10 6 0 11 -66 104 -97 137 -7 7 -13 16
-13 20 0 4 -12 21 -28 37 -15 17 -52 59 -82 95 -65 77 -234 247 -309 310 -29
25 -65 55 -80 68 -14 12 -44 35 -66 50 -22 15 -49 35 -59 44 -11 10 -25 18
-32 18 -7 0 -14 4 -16 8 -3 8 -133 92 -142 92 -3 0 -28 13 -56 30 -27 16 -50
27 -50 25 0 -3 -17 4 -37 14 -78 39 -207 89 -252 97 -14 3 -28 7 -33 10 -5 3
-21 8 -36 10 -15 3 -43 9 -62 14 -49 12 -110 22 -142 23 -39 1 -35 10 17 32
25 11 45 23 45 28 0 4 6 7 13 7 16 0 147 99 147 111 0 5 6 9 13 10 6 0 37 30
67 66 30 36 60 71 66 77 33 35 148 214 165 259 6 15 15 27 20 27 5 0 8 3 7 8
-1 4 16 43 38 87 22 44 50 107 63 140 13 33 30 74 36 90 7 17 23 62 35 100 13
39 26 79 30 90 22 57 65 240 75 320 4 28 8 61 11 75 7 40 2 405 -6 405 -1 0
-3 27 -6 60 -2 33 -6 71 -8 85 -3 14 -7 43 -10 65 -3 22 -9 56 -12 75 -4 19
-8 44 -9 55 -4 28 -61 251 -78 305 -64 201 -157 402 -263 567 -18 29 -34 55
-34 58 1 3 -5 12 -12 20 -27 30 -38 44 -38 50 0 9 -145 193 -220 279 -84 96
-361 366 -375 366 -5 0 -44 33 -79 65 -42 40 -284 198 -361 237 -22 11 -41 22
-43 23 -3 3 84 121 98 135 14 12 82 127 135 227 19 35 81 189 90 223 0 3 11
37 23 75 12 39 24 82 27 95 3 14 9 48 15 75 18 89 20 99 27 165 12 112 6 337
-9 346 -5 3 -6 9 -4 13 4 6 -12 101 -29 169 -3 12 -7 31 -9 41 -3 11 -10 29
-16 40 -6 12 -8 21 -4 21 3 0 0 7 -7 17 -8 9 -13 18 -12 19 12 18 -146 334
-228 456 -77 114 -203 252 -314 343 -26 22 -58 49 -70 60 -12 11 -29 25 -37
30 -65 44 -105 69 -136 87 -52 30 -221 112 -257 125 -16 6 -39 15 -50 19 -11
4 -22 8 -25 9 -11 2 -86 27 -100 32 -8 3 -24 7 -36 8 -12 1 -30 5 -40 10 -10
4 -28 9 -39 11 -11 1 -51 8 -90 15 -61 10 -398 22 -407 14z"/>
</g>
</svg>
