<svg width="128" height="38" viewBox="0 0 128 38" fill="none" xmlns="http://www.w3.org/2000/svg">
<path d="M20.173 15.532H15.38C15.3056 14.9523 15.1235 14.3917 14.843 13.879C14.5808 13.3993 14.2275 12.9754 13.803 12.631C13.3666 12.281 12.8697 12.0139 12.337 11.843C11.761 11.6563 11.1585 11.5641 10.553 11.57C9.393 11.57 8.382 11.858 7.521 12.434C6.66 13.004 5.992 13.836 5.518 14.93C5.043 16.017 4.806 17.338 4.806 18.892C4.806 20.491 5.043 21.833 5.518 22.921C5.999 24.008 6.671 24.829 7.532 25.383C8.392 25.938 9.389 26.215 10.52 26.215C11.155 26.215 11.742 26.131 12.282 25.963C12.8069 25.8067 13.2998 25.5585 13.738 25.23C14.1603 24.9023 14.5166 24.4975 14.788 24.037C15.073 23.57 15.27 23.037 15.38 22.439L20.174 22.461C20.0464 23.5014 19.7313 24.51 19.244 25.438C18.7438 26.4011 18.0725 27.2652 17.263 27.988C16.438 28.733 15.453 29.324 14.307 29.762C13.169 30.192 11.881 30.407 10.443 30.407C8.443 30.407 6.656 29.955 5.08 29.05C3.511 28.145 2.27 26.835 1.358 25.12C0.452 23.407 0 21.33 0 18.893C0 16.449 0.46 14.369 1.38 12.654C2.299 10.939 3.546 9.634 5.123 8.736C6.699 7.831 8.472 7.378 10.443 7.378C11.741 7.378 12.945 7.561 14.054 7.926C15.1333 8.27057 16.1394 8.81241 17.021 9.524C17.8867 10.2231 18.6015 11.0906 19.122 12.074C19.67 13.081 20.02 14.234 20.173 15.534V15.532ZM28.147 20.381V30.101H23.484V7.684H28.016V16.254H28.213C28.593 15.262 29.205 14.484 30.052 13.923C30.898 13.353 31.96 13.069 33.237 13.069C34.404 13.069 35.422 13.325 36.291 13.835C37.166 14.339 37.845 15.065 38.327 16.014C38.816 16.955 39.057 18.082 39.049 19.396V30.1H34.386V20.227C34.394 19.191 34.131 18.384 33.598 17.807C33.073 17.231 32.336 16.943 31.387 16.943C30.752 16.943 30.19 17.078 29.701 17.348C29.22 17.618 28.841 18.012 28.563 18.53C28.293 19.041 28.154 19.658 28.147 20.38V20.381ZM50.38 30.43C48.651 30.43 47.163 30.079 45.915 29.378C44.6853 28.6816 43.6878 27.6386 43.047 26.379C42.376 25.08 42.04 23.544 42.04 21.771C42.04 20.041 42.376 18.524 43.047 17.218C43.718 15.912 44.663 14.894 45.882 14.164C47.108 13.434 48.545 13.069 50.195 13.069C51.304 13.069 52.336 13.248 53.292 13.606C54.255 13.956 55.095 14.485 55.81 15.193C56.532 15.901 57.094 16.791 57.495 17.863C57.897 18.929 58.097 20.177 58.097 21.607V22.887H43.901V19.997H53.708C53.708 19.327 53.562 18.732 53.27 18.214C52.986 17.7038 52.5652 17.283 52.055 16.999C51.545 16.699 50.95 16.55 50.271 16.55C49.563 16.55 48.936 16.714 48.389 17.043C47.849 17.363 47.425 17.798 47.119 18.345C46.8097 18.8966 46.6478 19.5186 46.649 20.151V22.9C46.649 23.731 46.801 24.45 47.108 25.056C47.4033 25.6421 47.8635 26.1291 48.432 26.457C49.002 26.785 49.676 26.949 50.457 26.949C50.975 26.949 51.45 26.876 51.88 26.731C52.31 26.585 52.68 26.366 52.986 26.074C53.292 25.782 53.526 25.424 53.686 25.001L57.999 25.286C57.7947 26.2926 57.3307 27.2282 56.653 28C55.981 28.767 55.113 29.365 54.048 29.795C52.989 30.219 51.767 30.43 50.38 30.43ZM75.13 18.082L70.86 18.345C70.7883 17.9825 70.6267 17.6438 70.39 17.36C70.149 17.06 69.831 16.824 69.437 16.648C69.051 16.466 68.587 16.375 68.047 16.375C67.325 16.375 66.716 16.528 66.219 16.835C65.723 17.134 65.475 17.535 65.475 18.039C65.475 18.44 65.635 18.779 65.957 19.057C66.277 19.334 66.829 19.557 67.609 19.724L70.652 20.337C72.287 20.673 73.505 21.213 74.308 21.957C75.111 22.702 75.512 23.679 75.512 24.891C75.512 25.993 75.187 26.96 74.538 27.791C73.896 28.623 73.013 29.273 71.889 29.74C70.773 30.2 69.485 30.43 68.025 30.43C65.8 30.43 64.026 29.966 62.705 29.04C61.392 28.105 60.622 26.835 60.396 25.23L64.982 24.99C65.121 25.668 65.457 26.186 65.989 26.544C66.522 26.894 67.204 27.069 68.036 27.069C68.853 27.069 69.51 26.912 70.006 26.599C70.51 26.277 70.766 25.865 70.773 25.361C70.765 24.938 70.587 24.591 70.236 24.321C69.886 24.044 69.346 23.833 68.616 23.687L65.705 23.107C64.063 22.778 62.841 22.209 62.038 21.399C61.243 20.589 60.845 19.556 60.845 18.301C60.845 17.221 61.137 16.291 61.721 15.511C62.311 14.729 63.14 14.127 64.205 13.704C65.278 13.281 66.533 13.069 67.971 13.069C70.094 13.069 71.765 13.518 72.984 14.416C74.21 15.313 74.925 16.536 75.13 18.082ZM92.437 18.082L88.168 18.345C88.0963 17.9825 87.9347 17.6438 87.698 17.36C87.457 17.06 87.139 16.824 86.745 16.648C86.359 16.466 85.895 16.375 85.355 16.375C84.633 16.375 84.023 16.528 83.527 16.835C83.031 17.134 82.783 17.535 82.783 18.039C82.783 18.44 82.943 18.779 83.265 19.057C83.585 19.334 84.137 19.557 84.917 19.724L87.96 20.337C89.595 20.673 90.814 21.213 91.616 21.957C92.419 22.702 92.82 23.679 92.82 24.891C92.82 25.993 92.496 26.96 91.846 27.791C91.204 28.623 90.321 29.273 89.197 29.74C88.081 30.2 86.793 30.43 85.333 30.43C83.108 30.43 81.335 29.966 80.013 29.04C78.7 28.105 77.93 26.835 77.704 25.23L82.29 24.99C82.429 25.668 82.765 26.186 83.297 26.544C83.83 26.894 84.512 27.069 85.344 27.069C86.162 27.069 86.818 26.912 87.314 26.599C87.818 26.277 88.074 25.865 88.081 25.361C88.073 24.938 87.895 24.591 87.544 24.321C87.194 24.044 86.654 23.833 85.924 23.687L83.013 23.107C81.371 22.778 80.149 22.209 79.346 21.399C78.551 20.589 78.153 19.556 78.153 18.301C78.153 17.221 78.445 16.291 79.029 15.511C79.619 14.729 80.448 14.127 81.513 13.704C82.586 13.281 83.841 13.069 85.279 13.069C87.402 13.069 89.073 13.518 90.292 14.416C91.518 15.313 92.232 16.536 92.437 18.082ZM128 37.566C127.978 35.5009 127.744 33.4435 127.302 31.426C126.868 29.483 126.266 27.789 125.496 26.344C124.757 24.899 123.882 23.752 122.871 22.901C121.859 22.05 120.776 21.561 119.62 21.431C120.294 21.175 120.888 20.565 121.402 19.601C121.669 19.0935 121.887 18.5614 122.052 18.012C122.229 17.434 122.317 16.921 122.317 16.472C122.317 15.155 122.076 13.951 121.595 12.859C121.241 12.089 120.728 11.334 120.053 10.595C119.283 9.761 118.464 9.119 117.597 8.669C117.854 8.412 118.127 7.995 118.416 7.417C118.737 6.582 118.897 5.876 118.897 5.297C118.897 4.463 118.689 3.677 118.271 2.937C117.918 2.167 117.308 1.477 116.441 0.867C115.51 0.289 114.547 0 113.552 0C112.588 0 111.625 0.289 110.662 0.867C109.795 1.477 109.185 2.167 108.832 2.937C108.42 3.65506 108.204 4.46901 108.206 5.297C108.206 5.876 108.366 6.582 108.687 7.417C108.976 7.995 109.249 8.412 109.506 8.669C108.639 9.119 107.82 9.761 107.05 10.595C106.376 11.334 105.862 12.088 105.509 12.859C105.027 13.951 104.786 15.155 104.786 16.471C104.786 16.921 104.874 17.434 105.051 18.012C105.228 18.59 105.444 19.12 105.701 19.602C106.215 20.565 106.809 21.175 107.483 21.432C106.327 21.56 105.244 22.05 104.232 22.901C103.221 23.751 102.346 24.899 101.608 26.344C100.837 27.789 100.235 29.483 99.802 31.425C99.3597 33.4424 99.1255 35.4998 99.103 37.565H128V37.566Z" fill="url(#paint0_linear_15_3)"/>
<defs>
<linearGradient id="paint0_linear_15_3" x1="-4.70179e-09" y1="38" x2="128" y2="38" gradientUnits="userSpaceOnUse">
<stop stop-color="#00D9F5"/>
<stop offset="1" stop-color="#00F5A0"/>
</linearGradient>
</defs>
</svg>
